<?xml version="1.0" standalone="no"?>
<!DOCTYPE svg PUBLIC "-//W3C//DTD SVG 20010904//EN"
 "http://www.w3.org/TR/2001/REC-SVG-20010904/DTD/svg10.dtd">
<svg version="1.0" xmlns="http://www.w3.org/2000/svg"
 width="1024.000000pt" height="599.000000pt" viewBox="0 0 1024.000000 599.000000"
 preserveAspectRatio="xMidYMid meet">

<g transform="translate(0.000000,599.000000) scale(0.100000,-0.100000)"
fill="#000000" stroke="none">
<path d="M5935 5626 c-87 -28 -118 -44 -182 -95 -137 -108 -242 -316 -251
-500 -8 -167 37 -301 134 -398 99 -100 239 -142 410 -124 118 12 166 26 289
86 85 42 292 191 281 203 -3 3 -32 -9 -63 -25 -134 -70 -336 -112 -453 -94
-147 23 -277 92 -354 188 -92 115 -123 217 -106 344 16 113 43 180 90 223 54
49 101 59 208 47 100 -11 147 -28 197 -72 41 -36 44 -63 15 -126 -10 -24 -17
-43 -15 -43 3 0 34 20 71 45 57 39 212 120 281 146 37 14 27 34 -44 87 -169
124 -342 161 -508 108z"/>
<path d="M4665 5623 c-46 -16 -148 -39 -250 -54 -38 -6 -76 -12 -82 -14 -19
-6 -6 -29 27 -48 39 -23 68 -74 80 -138 13 -76 21 -535 10 -644 -5 -49 -11
-121 -15 -159 l-6 -68 28 5 c15 2 67 15 115 27 79 20 88 25 97 52 6 17 9 34 6
38 -2 4 2 48 10 98 8 50 17 186 19 302 2 117 7 214 9 217 13 13 53 -15 139
-95 119 -112 200 -201 254 -282 l44 -65 0 -137 c0 -76 3 -138 6 -138 16 0 145
57 185 82 l46 28 6 102 c6 107 -1 879 -8 886 -11 11 -335 -55 -335 -69 0 -4
15 -20 34 -34 61 -47 68 -75 68 -279 -1 -288 -2 -316 -10 -316 -5 0 -37 51
-72 113 -141 250 -329 567 -349 588 -14 15 -20 15 -56 2z"/>
<path d="M1820 5610 c-41 -11 -113 -38 -160 -61 -71 -35 -101 -57 -182 -140
-79 -80 -104 -113 -137 -181 -57 -119 -71 -185 -61 -305 9 -123 37 -182 124
-268 80 -79 163 -118 319 -150 38 -8 34 -29 -13 -66 -56 -45 -50 -53 16 -18
43 22 69 29 113 29 74 0 123 -30 216 -133 56 -62 74 -76 90 -71 45 15 295 186
295 203 0 4 -24 6 -53 3 -38 -3 -96 7 -222 38 -94 22 -176 47 -182 53 -10 10
-8 20 12 50 14 20 24 37 22 37 -3 0 -30 -11 -61 -25 -72 -32 -103 -31 -152 1
-109 72 -209 205 -249 328 -27 86 -31 158 -15 286 17 134 103 274 209 342 118
75 301 6 423 -159 47 -64 93 -162 108 -228 19 -86 14 -242 -10 -320 -27 -86
-91 -209 -131 -250 -30 -32 -36 -45 -20 -45 18 0 178 114 229 164 59 56 134
169 162 243 99 262 -33 530 -308 630 -97 35 -277 41 -382 13z"/>
<path d="M3635 5605 c-27 -7 -72 -16 -100 -20 -27 -4 -76 -14 -108 -22 l-57
-16 39 -42 c62 -67 65 -85 65 -415 1 -242 -2 -300 -14 -325 -33 -66 -213 -117
-332 -95 -98 19 -152 53 -202 129 -25 37 -53 94 -62 127 -25 89 -30 312 -10
412 14 71 49 185 70 235 17 38 -15 14 -59 -45 -122 -162 -222 -376 -246 -524
-26 -164 8 -324 85 -400 134 -129 326 -120 628 32 61 31 114 52 119 47 4 -4 9
-45 11 -90 l3 -81 113 55 c87 42 116 61 124 82 7 17 11 189 12 496 1 528 9
484 -79 460z"/>
<path d="M4066 5600 c-49 -11 -113 -22 -141 -25 -78 -10 -87 -20 -47 -51 52
-41 73 -94 82 -203 10 -125 4 -563 -9 -716 -6 -66 -11 -123 -11 -127 0 -5 6
-8 13 -8 20 1 230 89 237 100 4 6 7 40 8 76 1 36 5 71 9 77 9 15 15 625 7 775
l-6 122 -27 -1 c-14 0 -66 -9 -115 -19z"/>
<path d="M7125 5590 c-22 -4 -80 -15 -130 -24 -139 -25 -145 -27 -145 -40 0
-7 14 -23 31 -35 48 -36 60 -79 66 -233 7 -155 3 -167 -56 -169 -47 -1 -84
-12 -88 -25 -2 -6 15 -19 38 -29 56 -26 88 -52 101 -84 7 -16 10 -109 9 -253
-2 -193 0 -229 12 -234 8 -3 60 9 116 26 82 26 102 36 106 53 6 30 14 197 14
339 1 110 2 118 24 132 28 19 290 88 337 90 l35 1 0 -155 c0 -85 -4 -229 -8
-319 l-9 -164 38 7 c54 11 137 43 176 69 26 18 35 32 40 67 11 68 18 644 10
825 l-7 160 -50 -1 c-67 -2 -275 -40 -288 -53 -7 -7 2 -22 29 -48 50 -49 74
-129 74 -246 0 -122 7 -118 -195 -121 -94 -1 -178 2 -187 6 -16 8 -18 28 -18
201 0 205 -6 268 -24 266 -6 -1 -29 -5 -51 -9z"/>
<path d="M8505 5555 c-143 -29 -331 -148 -418 -265 -78 -103 -117 -219 -117
-345 0 -182 91 -330 253 -410 64 -32 90 -39 183 -48 92 -8 117 -8 159 5 l50
16 -39 1 c-106 3 -188 64 -262 194 -59 106 -75 165 -81 313 -6 132 5 191 54
289 32 63 106 151 143 170 42 22 126 19 177 -6 150 -73 275 -373 242 -584 -25
-159 -87 -277 -184 -348 -51 -38 -21 -30 84 20 103 49 220 167 278 279 97 186
100 392 8 531 -101 153 -321 231 -530 188z"/>
<path d="M4745 3511 c-208 -75 -360 -253 -405 -476 -15 -72 -23 -89 -66 -138
-19 -20 -34 -41 -34 -45 0 -5 17 -16 38 -25 34 -15 42 -25 66 -89 55 -141 130
-227 246 -282 59 -28 74 -31 160 -30 63 0 114 6 150 18 68 22 228 106 295 154
88 63 176 134 172 139 -3 2 -51 -18 -108 -45 -117 -56 -246 -92 -328 -92 -136
1 -263 50 -353 138 -79 77 -67 95 85 132 45 11 138 33 207 49 69 17 166 42
215 55 50 14 128 35 175 47 47 12 89 25 95 30 11 11 -39 10 -115 -1 -208 -32
-286 -40 -565 -60 -71 -5 -146 -12 -165 -15 -60 -11 -72 7 -73 106 0 74 4 92
32 151 56 118 135 166 249 153 94 -11 165 -49 236 -126 l62 -67 78 43 c42 23
102 50 132 61 30 10 54 23 54 29 0 21 -70 93 -118 123 -98 60 -172 82 -274 82
-64 -1 -109 -6 -143 -19z"/>
<path d="M5660 3473 c-14 -2 -36 -8 -50 -13 -14 -5 -64 -14 -112 -20 -55 -8
-88 -17 -88 -24 0 -7 16 -27 35 -46 19 -18 40 -50 47 -69 21 -64 15 -808 -8
-883 -3 -9 0 -19 6 -23 11 -7 114 12 139 26 9 4 50 15 91 24 124 28 461 147
449 159 -2 2 -24 0 -49 -5 -80 -17 -183 -28 -279 -31 l-94 -3 1 345 c1 190 -1
396 -4 458 l-6 112 -27 -1 c-14 -1 -37 -4 -51 -6z"/>
<path d="M3490 1781 c-8 -5 -35 -12 -60 -16 -56 -9 -350 -81 -407 -100 -61
-21 -73 -13 -73 47 l0 50 -37 -5 c-21 -3 -94 -17 -163 -32 -69 -15 -155 -32
-193 -39 -37 -7 -71 -16 -74 -20 -4 -4 8 -19 27 -34 92 -72 113 -115 130 -272
14 -125 8 -705 -8 -880 -5 -52 -8 -98 -6 -102 5 -8 182 55 250 89 51 25 52 27
58 77 4 28 8 122 11 209 5 163 7 177 28 177 24 0 656 -487 815 -628 40 -36 75
-62 78 -59 8 8 -359 556 -514 767 -37 50 -62 93 -60 105 2 13 29 34 76 60 161
89 265 186 312 290 37 80 43 116 35 183 -6 49 -13 63 -50 99 -40 41 -45 43
-101 43 -33 0 -66 -4 -74 -9z m-193 -151 c83 -37 106 -129 57 -227 -39 -79
-143 -185 -253 -257 -112 -75 -137 -85 -144 -59 -3 10 -5 127 -6 259 -1 202 1
243 14 254 57 47 255 66 332 30z"/>
<path d="M5830 1766 c-112 -34 -165 -64 -265 -151 -118 -102 -209 -270 -247
-453 -27 -130 -21 -346 11 -436 92 -258 300 -373 628 -346 136 11 224 35 346
96 80 40 198 117 268 176 26 21 53 38 61 38 8 0 40 -29 72 -65 103 -117 194
-162 371 -186 71 -9 101 -8 178 5 103 18 251 70 334 117 207 119 347 340 369
584 7 83 -20 208 -63 286 -102 189 -355 306 -599 278 -320 -36 -603 -272 -683
-569 -27 -98 -29 -264 -4 -340 21 -66 15 -76 -67 -117 -172 -86 -410 -123
-566 -88 -168 37 -327 145 -421 285 -79 118 -123 303 -103 432 29 190 133 278
329 278 201 0 361 -101 361 -228 0 -18 4 -32 8 -32 4 0 24 16 43 36 52 54 141
109 232 144 45 18 86 35 91 40 12 12 -89 104 -164 150 -144 87 -362 114 -520
66z m1535 -179 c55 -28 149 -119 188 -183 74 -119 135 -341 122 -442 -22 -175
-56 -266 -131 -356 -59 -71 -109 -91 -224 -91 -84 0 -102 3 -153 29 -130 63
-229 211 -269 401 -18 91 -19 109 -9 199 7 54 23 127 35 162 47 128 141 254
218 293 59 29 153 24 223 -12z"/>
<path d="M5048 1745 c-5 -5 -378 -84 -400 -85 -20 0 -4 -21 42 -54 53 -38 77
-77 105 -171 16 -53 19 -104 19 -415 1 -404 5 -386 -82 -433 -70 -38 -141 -52
-257 -51 -84 1 -109 5 -155 26 -109 50 -183 153 -226 314 -24 87 -27 119 -28
269 0 94 2 200 6 236 10 82 50 224 83 290 14 27 22 49 17 49 -16 0 -121 -117
-162 -180 -66 -103 -146 -276 -180 -390 -41 -140 -65 -350 -50 -440 26 -152
67 -226 161 -289 170 -113 417 -89 718 70 62 33 120 58 128 55 13 -5 14 -18 8
-74 -3 -37 -9 -77 -12 -89 -3 -15 0 -25 11 -29 19 -7 267 99 290 125 25 28 31
167 31 736 l0 530 -30 3 c-17 2 -33 0 -37 -3z"/>
</g>
</svg>
